<svg xmlns="http://www.w3.org/2000/svg" xmlns:xlink="http://www.w3.org/1999/xlink" version="1.1" id="Capa_8" x="0px" y="0px" viewBox="0 0 480.089 480.089" style="enable-background:new 0 0 480.089 480.089" xml:space="preserve" width="50px" height="50px"> <g id="medal"> <path d="M471.1,4.224c-1.393-2.602-4.105-4.225-7.056-4.224h-112c-2.674,0-5.172,1.335-6.656,3.56L240.044,161.6L134.7,3.56     C133.216,1.335,130.718,0,128.044,0h-112c-4.418-0.001-8.001,3.581-8.001,7.999c0,1.581,0.468,3.126,1.345,4.441L120.044,178.4     V208c0,4.418,3.582,8,8,8h88v10.336c-69.439,13.255-114.985,80.291-101.73,149.73s80.291,114.985,149.73,101.73     c69.439-13.255,114.985-80.291,101.73-149.73c-9.842-51.562-50.168-91.887-101.73-101.73V216h88c4.418,0,8-3.582,8-8v-29.6     L470.7,12.44C472.339,9.985,472.493,6.827,471.1,4.224z M110.964,136h49.08v-16h-59.72L30.988,16h92.776L161.1,72h-57.056v16     h67.72l53.336,80h-92.8L110.964,136z M352.044,352c0,61.856-50.144,112-112,112s-112-50.144-112-112s50.144-112,112-112     C301.873,240.066,351.978,290.172,352.044,352z M232.044,224.408V216h16v8.408c-2.656-0.168-5.296-0.408-8-0.408     C237.34,224,234.7,224.24,232.044,224.408z M344.044,200h-208v-16h208V200z M379.764,120h-59.72v16H369.1l-21.336,32h-92.8     L308.3,88h67.744V72h-57.056l37.336-56h92.8L379.764,120z" fill="#0caec1"></path> <path d="M136.044,352c0,57.438,46.562,104,104,104s104-46.562,104-104s-46.562-104-104-104     C182.634,248.066,136.11,294.59,136.044,352z M328.044,352c0,48.601-39.399,88-88,88s-88-39.399-88-88c0-48.601,39.399-88,88-88     C288.621,264.057,327.987,303.423,328.044,352z" fill="#0caec1"></path> <path d="M64.044,224h-16c0,17.673-14.327,32-32,32v16c17.673,0,32,14.327,32,32h16c0-17.673,14.327-32,32-32v-16     C78.371,256,64.044,241.673,64.044,224z M56.044,277.496l-0.072-0.096c-3.528-5.272-8.056-9.8-13.328-13.328L42.548,264     c5.35-3.558,9.938-8.146,13.496-13.496c3.558,5.35,8.146,9.938,13.496,13.496C64.19,267.558,59.602,272.146,56.044,277.496z" fill="#0caec1"></path> <path d="M432.044,352h-16c0,17.673-14.327,32-32,32v16c17.673,0,32,14.327,32,32h16c0-17.673,14.327-32,32-32v-16     C446.371,384,432.044,369.673,432.044,352z M424.044,405.496l-0.072-0.096c-3.528-5.272-8.056-9.8-13.328-13.328L410.548,392     c5.35-3.558,9.938-8.146,13.496-13.496c3.558,5.35,8.146,9.938,13.496,13.496C432.19,395.558,427.602,400.146,424.044,405.496z" fill="#0caec1"></path> <polygon points="232.044,304 216.044,304 216.044,320 232.044,320 232.044,408 248.044,408 248.044,296 232.044,296    " fill="#0caec1"></polygon> </g> </svg>